<svg width="127" height="27" viewBox="0 0 127 27" fill="none" xmlns="http://www.w3.org/2000/svg">
<path d="M0 9.152C0 7.3173 0.37333 5.7173 1.12 4.352C1.86667 2.9653 2.90133 1.8987 4.224 1.152C5.5467 0.384 7.0613 0 8.768 0C10.9653 0 12.7787 0.554701 14.208 1.664C15.6587 2.752 16.6293 4.288 17.12 6.272H12.288C12.032 5.504 11.5947 4.9067 10.976 4.48C10.3787 4.032 9.632 3.808 8.736 3.808C7.456 3.808 6.4427 4.2773 5.696 5.216C4.9493 6.1333 4.576 7.4453 4.576 9.152C4.576 10.8373 4.9493 12.1493 5.696 13.088C6.4427 14.0053 7.456 14.464 8.736 14.464C10.5493 14.464 11.7333 13.6533 12.288 12.032H17.12C16.6293 13.952 15.6587 15.4773 14.208 16.608C12.7573 17.7387 10.944 18.304 8.768 18.304C7.0613 18.304 5.5467 17.9307 4.224 17.184C2.90133 16.416 1.86667 15.3493 1.12 13.984C0.37333 12.5973 0 10.9867 0 9.152ZM28.274 18.304C26.5673 18.304 25.0313 17.9307 23.666 17.184C22.3007 16.416 21.2233 15.3387 20.434 13.952C19.666 12.5653 19.282 10.9653 19.282 9.152C19.282 7.3387 19.6767 5.7387 20.466 4.352C21.2767 2.9653 22.3753 1.8987 23.762 1.152C25.1487 0.384 26.6953 0 28.402 0C30.1087 0 31.6553 0.384 33.042 1.152C34.4287 1.8987 35.5167 2.9653 36.306 4.352C37.1167 5.7387 37.522 7.3387 37.522 9.152C37.522 10.9653 37.106 12.5653 36.274 13.952C35.4633 15.3387 34.354 16.416 32.946 17.184C31.5593 17.9307 30.002 18.304 28.274 18.304ZM28.274 14.4C29.0847 14.4 29.842 14.208 30.546 13.824C31.2713 13.4187 31.8473 12.8213 32.274 12.032C32.7007 11.2427 32.914 10.2827 32.914 9.152C32.914 7.4667 32.466 6.176 31.57 5.28C30.6953 4.3627 29.618 3.904 28.338 3.904C27.058 3.904 25.9807 4.3627 25.106 5.28C24.2527 6.176 23.826 7.4667 23.826 9.152C23.826 10.8373 24.242 12.1387 25.074 13.056C25.9273 13.952 26.994 14.4 28.274 14.4ZM62.8243 0.0320015C65.0003 0.0320015 66.7496 0.704 68.0723 2.048C69.4163 3.3707 70.0883 5.2267 70.0883 7.616V18.016H65.6083V8.224C65.6083 6.8373 65.2563 5.7813 64.5523 5.056C63.8483 4.3093 62.8883 3.936 61.6723 3.936C60.4563 3.936 59.4856 4.3093 58.7603 5.056C58.0563 5.7813 57.7043 6.8373 57.7043 8.224V18.016H53.2243V8.224C53.2243 6.8373 52.8723 5.7813 52.1683 5.056C51.4643 4.3093 50.5043 3.936 49.2883 3.936C48.0509 3.936 47.0696 4.3093 46.3443 5.056C45.6403 5.7813 45.2883 6.8373 45.2883 8.224V18.016H40.8083V0.288H45.2883V2.432C45.8643 1.6853 46.6003 1.0987 47.4963 0.672001C48.4136 0.245301 49.4163 0.0320015 50.5043 0.0320015C51.8909 0.0320015 53.1283 0.330701 54.2163 0.928001C55.3043 1.504 56.1469 2.336 56.7443 3.424C57.3203 2.4 58.1523 1.5787 59.2403 0.960001C60.3496 0.341301 61.5443 0.0320015 62.8243 0.0320015ZM78.8195 2.848C79.3955 2.0373 80.1848 1.3653 81.1875 0.832001C82.2115 0.277301 83.3742 0 84.6755 0C86.1902 0 87.5555 0.373301 88.7715 1.12C90.0088 1.8667 90.9795 2.9333 91.6835 4.32C92.4088 5.6853 92.7715 7.2747 92.7715 9.088C92.7715 10.9013 92.4088 12.512 91.6835 13.92C90.9795 15.3067 90.0088 16.384 88.7715 17.152C87.5555 17.92 86.1902 18.304 84.6755 18.304C83.3742 18.304 82.2222 18.0373 81.2195 17.504C80.2382 16.9707 79.4382 16.2987 78.8195 15.488V26.464H74.3395V0.288H78.8195V2.848ZM88.1955 9.088C88.1955 8.0213 87.9715 7.104 87.5235 6.336C87.0968 5.5467 86.5208 4.9493 85.7955 4.544C85.0915 4.1387 84.3235 3.936 83.4915 3.936C82.6808 3.936 81.9128 4.1493 81.1875 4.576C80.4835 4.9813 79.9075 5.5787 79.4595 6.368C79.0328 7.1573 78.8195 8.0853 78.8195 9.152C78.8195 10.2187 79.0328 11.1467 79.4595 11.936C79.9075 12.7253 80.4835 13.3333 81.1875 13.76C81.9128 14.1653 82.6808 14.368 83.4915 14.368C84.3235 14.368 85.0915 14.1547 85.7955 13.728C86.5208 13.3013 87.0968 12.6933 87.5235 11.904C87.9715 11.1147 88.1955 10.176 88.1955 9.088ZM103.899 18.304C102.192 18.304 100.656 17.9307 99.291 17.184C97.926 16.416 96.848 15.3387 96.059 13.952C95.291 12.5653 94.907 10.9653 94.907 9.152C94.907 7.3387 95.302 5.7387 96.091 4.352C96.902 2.9653 98 1.8987 99.387 1.152C100.774 0.384 102.32 0 104.027 0C105.734 0 107.28 0.384 108.667 1.152C110.054 1.8987 111.142 2.9653 111.931 4.352C112.742 5.7387 113.147 7.3387 113.147 9.152C113.147 10.9653 112.731 12.5653 111.899 13.952C111.088 15.3387 109.979 16.416 108.571 17.184C107.184 17.9307 105.627 18.304 103.899 18.304ZM103.899 14.4C104.71 14.4 105.467 14.208 106.171 13.824C106.896 13.4187 107.472 12.8213 107.899 12.032C108.326 11.2427 108.539 10.2827 108.539 9.152C108.539 7.4667 108.091 6.176 107.195 5.28C106.32 4.3627 105.243 3.904 103.963 3.904C102.683 3.904 101.606 4.3627 100.731 5.28C99.878 6.176 99.451 7.4667 99.451 9.152C99.451 10.8373 99.867 12.1387 100.699 13.056C101.552 13.952 102.619 14.4 103.899 14.4ZM120.913 3.04C121.489 2.1013 122.236 1.3653 123.153 0.832001C124.092 0.298701 125.159 0.0320015 126.353 0.0320015V4.736H125.169C123.761 4.736 122.695 5.0667 121.969 5.728C121.265 6.3893 120.913 7.5413 120.913 9.184V18.016H116.433V0.288H120.913V3.04Z" fill="white"/>
</svg>
